# xmcd CD database file
#
# Track frame offsets:
#	150
#	19168
#	41783
#	54977
#	68950
#	86049
#	101011
#	104511
#	127386
#	148135
#	169186
#
# Disc length: 2624 seconds
#
# Revision: 0
# Processed by: cddbd v1.5.2PL0 Copyright (c) Steve Scherf et al.
# Submitted via: CdAid (MTCDDB.DLL V2003.12.21)
#
DISCID=a60a3e0b
DTITLE=Kathy Mattea  - Coal
DYEAR=2008
DGENRE=Folk
TTITLE0=The L&N Don't Stop Here Anymore
TTITLE1=Blue Diamond Mines
TTITLE2=Red-Winged Blackbird
TTITLE3=Lawrence Jones
TTITLE4=Green Rolling Hills
TTITLE5=Coal Tattoo
TTITLE6=Sally In the Garden
TTITLE7=You'll Never Leave Harlan Alive
TTITLE8=Dark as a Dungeon
TTITLE9=Coming of the Roads
TTITLE10=Black Lung/ Coal
EXTD=Black Lung/ Coal ID3G:  80 YEAR: 2008
EXTT0=
EXTT1=
EXTT2=
EXTT3=
EXTT4=
EXTT5=
EXTT6=
EXTT7=
EXTT8=
EXTT9=
EXTT10=
PLAYORDER=
